<svg width="70" height="70" viewBox="0 0 70 70" fill="none" xmlns="http://www.w3.org/2000/svg">
<g clip-path="url(#clip0)">
<path d="M35 70C54.33 70 70 54.33 70 35C70 15.67 54.33 0 35 0C15.67 0 0 15.67 0 35C0 54.33 15.67 70 35 70Z" fill="url(#paint0_linear)"/>
<mask id="mask0" mask-type="alpha" maskUnits="userSpaceOnUse" x="17" y="17" width="36" height="36">
<path d="M17 17H53V53H17V17Z" fill="white"/>
</mask>
<g mask="url(#mask0)">
<path fill-rule="evenodd" clip-rule="evenodd" d="M50.9999 50.1114C50.9999 50.6016 50.6015 51 50.1113 51C32.956 51 19.0001 37.0439 19.0001 19.8886C19.0001 19.3984 19.3985 19 19.8887 19H26.5C26.9903 19 27.3887 19.3984 27.3887 19.8886C27.3887 22.3077 27.7686 24.6816 28.5117 26.9307C28.6152 27.2627 28.5312 27.6064 28.1953 27.9562L24.7578 32.5087C24.5274 32.8144 24.4912 33.2236 24.664 33.5644C27.4697 39.079 30.8789 42.4883 36.4325 45.3339C36.7704 45.5108 37.1845 45.4736 37.4912 45.2422L42.1484 41.714C42.3837 41.4786 42.7363 41.3946 43.0547 41.503C45.3193 42.251 47.6933 42.6299 50.1113 42.6299C50.6015 42.6299 50.9999 43.0283 50.9999 43.5187V50.1114ZM50.1113 40.6298C47.9072 40.6298 45.7431 40.2851 43.6923 39.6074C42.6699 39.2587 41.5058 39.5293 40.8388 40.209L36.7909 43.2648C32.0966 40.7588 29.205 37.8681 26.7334 33.209L29.6992 29.2667C30.4697 28.4972 30.7461 27.3731 30.4149 26.3184C29.7343 24.2569 29.3886 22.0937 29.3886 19.8887C29.3887 18.2959 28.0928 17 26.4999 17H19.8886C18.2959 17 17 18.2959 17 19.8885C17 38.1465 31.8535 53 50.1113 53C51.7041 53 53 51.7041 53 50.1113V43.5186C53 41.9258 51.704 40.6298 50.1113 40.6298Z" fill="white"/>
</g>
</g>
<defs>
<linearGradient id="paint0_linear" x1="21" y1="-3.25739e-06" x2="55" y2="59" gradientUnits="userSpaceOnUse">
<stop stop-color="#2763A1"/>
<stop offset="1" stop-color="#4A67A9"/>
</linearGradient>
<clipPath id="clip0">
<rect width="70" height="70" fill="white"/>
</clipPath>
</defs>
</svg>
