<?xml version="1.0" encoding="UTF-8" standalone="no"?>
<svg
   xmlns:dc="http://purl.org/dc/elements/1.1/"
   xmlns:cc="http://creativecommons.org/ns#"
   xmlns:rdf="http://www.w3.org/1999/02/22-rdf-syntax-ns#"
   xmlns:svg="http://www.w3.org/2000/svg"
   xmlns="http://www.w3.org/2000/svg"
   xmlns:sodipodi="http://sodipodi.sourceforge.net/DTD/sodipodi-0.dtd"
   xmlns:inkscape="http://www.inkscape.org/namespaces/inkscape"
   version="1.1"
   id="svg2"
   xml:space="preserve"
   width="2560"
   height="1440"
   viewBox="0 0 2560 1440"
   sodipodi:docname="decalogue final files.ai"><metadata
     id="metadata8"><rdf:RDF><cc:Work
         rdf:about=""><dc:format>image/svg+xml</dc:format><dc:type
           rdf:resource="http://purl.org/dc/dcmitype/StillImage" /></cc:Work></rdf:RDF></metadata><defs
     id="defs6"><clipPath
       clipPathUnits="userSpaceOnUse"
       id="clipPath20"><path
         d="M 0,1080 H 1920 V 0 H 0 Z"
         id="path18" /></clipPath><linearGradient
       x1="0"
       y1="0"
       x2="1"
       y2="0"
       gradientUnits="userSpaceOnUse"
       gradientTransform="matrix(-179.58472,0,0,179.58472,704.63861,564.94592)"
       spreadMethod="pad"
       id="linearGradient112"><stop
         style="stop-opacity:1;stop-color:#0f72ba"
         offset="0"
         id="stop108" /><stop
         style="stop-opacity:1;stop-color:#262261"
         offset="1"
         id="stop110" /></linearGradient><linearGradient
       x1="0"
       y1="0"
       x2="1"
       y2="0"
       gradientUnits="userSpaceOnUse"
       gradientTransform="matrix(0,176.60977,176.60977,0,530.2439,429.12045)"
       spreadMethod="pad"
       id="linearGradient132"><stop
         style="stop-opacity:1;stop-color:#0f72ba"
         offset="0"
         id="stop128" /><stop
         style="stop-opacity:1;stop-color:#262261"
         offset="1"
         id="stop130" /></linearGradient><linearGradient
       x1="0"
       y1="0"
       x2="1"
       y2="0"
       gradientUnits="userSpaceOnUse"
       gradientTransform="matrix(-93.874649,-93.874649,-93.874649,93.874649,570.33429,624.15503)"
       spreadMethod="pad"
       id="linearGradient152"><stop
         style="stop-opacity:1;stop-color:#0f72ba"
         offset="0"
         id="stop148" /><stop
         style="stop-opacity:1;stop-color:#262261"
         offset="1"
         id="stop150" /></linearGradient><linearGradient
       x1="0"
       y1="0"
       x2="1"
       y2="0"
       gradientUnits="userSpaceOnUse"
       gradientTransform="matrix(0,-230.65253,-230.65253,0,592.97406,618.27393)"
       spreadMethod="pad"
       id="linearGradient172"><stop
         style="stop-opacity:1;stop-color:#0f72ba"
         offset="0"
         id="stop168" /><stop
         style="stop-opacity:1;stop-color:#262261"
         offset="1"
         id="stop170" /></linearGradient><clipPath
       clipPathUnits="userSpaceOnUse"
       id="clipPath182"><path
         d="M 0,1080 H 1920 V 0 H 0 Z"
         id="path180" /></clipPath><linearGradient
       x1="0"
       y1="0"
       x2="1"
       y2="0"
       gradientUnits="userSpaceOnUse"
       gradientTransform="matrix(-170.10886,0,0,170.10886,674.46692,610.7121)"
       spreadMethod="pad"
       id="linearGradient222"><stop
         style="stop-opacity:1;stop-color:#0f72ba"
         offset="0"
         id="stop218" /><stop
         style="stop-opacity:1;stop-color:#262261"
         offset="1"
         id="stop220" /></linearGradient><linearGradient
       x1="0"
       y1="0"
       x2="1"
       y2="0"
       gradientUnits="userSpaceOnUse"
       gradientTransform="matrix(-170.10886,0,0,170.10886,674.46692,620.57306)"
       spreadMethod="pad"
       id="linearGradient242"><stop
         style="stop-opacity:1;stop-color:#0f72ba"
         offset="0"
         id="stop238" /><stop
         style="stop-opacity:1;stop-color:#262261"
         offset="1"
         id="stop240" /></linearGradient><linearGradient
       x1="0"
       y1="0"
       x2="1"
       y2="0"
       gradientUnits="userSpaceOnUse"
       gradientTransform="matrix(-170.10886,0,0,170.10886,674.46692,631.57184)"
       spreadMethod="pad"
       id="linearGradient262"><stop
         style="stop-opacity:1;stop-color:#0f72ba"
         offset="0"
         id="stop258" /><stop
         style="stop-opacity:1;stop-color:#262261"
         offset="1"
         id="stop260" /></linearGradient><linearGradient
       x1="0"
       y1="0"
       x2="1"
       y2="0"
       gradientUnits="userSpaceOnUse"
       gradientTransform="matrix(0,-24.292593,-24.292593,0,636.91681,670.88104)"
       spreadMethod="pad"
       id="linearGradient282"><stop
         style="stop-opacity:1;stop-color:#0f72ba"
         offset="0"
         id="stop278" /><stop
         style="stop-opacity:1;stop-color:#262261"
         offset="1"
         id="stop280" /></linearGradient><linearGradient
       x1="0"
       y1="0"
       x2="1"
       y2="0"
       gradientUnits="userSpaceOnUse"
       gradientTransform="matrix(-170.10886,0,0,170.10886,674.46692,652.43158)"
       spreadMethod="pad"
       id="linearGradient302"><stop
         style="stop-opacity:1;stop-color:#0f72ba"
         offset="0"
         id="stop298" /><stop
         style="stop-opacity:1;stop-color:#262261"
         offset="1"
         id="stop300" /></linearGradient><linearGradient
       x1="0"
       y1="0"
       x2="1"
       y2="0"
       gradientUnits="userSpaceOnUse"
       gradientTransform="matrix(0,-24.292593,-24.292593,0,627.05585,670.88104)"
       spreadMethod="pad"
       id="linearGradient322"><stop
         style="stop-opacity:1;stop-color:#0f72ba"
         offset="0"
         id="stop318" /><stop
         style="stop-opacity:1;stop-color:#262261"
         offset="1"
         id="stop320" /></linearGradient><linearGradient
       x1="0"
       y1="0"
       x2="1"
       y2="0"
       gradientUnits="userSpaceOnUse"
       gradientTransform="matrix(-170.10886,0,0,170.10886,674.46692,652.43158)"
       spreadMethod="pad"
       id="linearGradient342"><stop
         style="stop-opacity:1;stop-color:#0f72ba"
         offset="0"
         id="stop338" /><stop
         style="stop-opacity:1;stop-color:#262261"
         offset="1"
         id="stop340" /></linearGradient><linearGradient
       x1="0"
       y1="0"
       x2="1"
       y2="0"
       gradientUnits="userSpaceOnUse"
       gradientTransform="matrix(-170.10886,0,0,170.10886,674.46692,646.74255)"
       spreadMethod="pad"
       id="linearGradient362"><stop
         style="stop-opacity:1;stop-color:#0f72ba"
         offset="0"
         id="stop358" /><stop
         style="stop-opacity:1;stop-color:#262261"
         offset="1"
         id="stop360" /></linearGradient><linearGradient
       x1="0"
       y1="0"
       x2="1"
       y2="0"
       gradientUnits="userSpaceOnUse"
       gradientTransform="matrix(-170.10886,0,0,170.10886,674.46692,652.05231)"
       spreadMethod="pad"
       id="linearGradient382"><stop
         style="stop-opacity:1;stop-color:#0f72ba"
         offset="0"
         id="stop378" /><stop
         style="stop-opacity:1;stop-color:#262261"
         offset="1"
         id="stop380" /></linearGradient><linearGradient
       x1="0"
       y1="0"
       x2="1"
       y2="0"
       gradientUnits="userSpaceOnUse"
       gradientTransform="matrix(-170.10886,0,0,170.10886,674.46692,641.4328)"
       spreadMethod="pad"
       id="linearGradient402"><stop
         style="stop-opacity:1;stop-color:#0f72ba"
         offset="0"
         id="stop398" /><stop
         style="stop-opacity:1;stop-color:#262261"
         offset="1"
         id="stop400" /></linearGradient><linearGradient
       x1="0"
       y1="0"
       x2="1"
       y2="0"
       gradientUnits="userSpaceOnUse"
       gradientTransform="matrix(-170.10886,0,0,170.10886,674.46692,616.02185)"
       spreadMethod="pad"
       id="linearGradient422"><stop
         style="stop-opacity:1;stop-color:#0f72ba"
         offset="0"
         id="stop418" /><stop
         style="stop-opacity:1;stop-color:#262261"
         offset="1"
         id="stop420" /></linearGradient><clipPath
       clipPathUnits="userSpaceOnUse"
       id="clipPath432"><path
         d="M 0,1080 H 1920 V 0 H 0 Z"
         id="path430" /></clipPath><linearGradient
       x1="0"
       y1="0"
       x2="1"
       y2="0"
       gradientUnits="userSpaceOnUse"
       gradientTransform="matrix(9.8609562,0,0,-9.8609562,642.22656,605.4024)"
       spreadMethod="pad"
       id="linearGradient454"><stop
         style="stop-opacity:1;stop-color:#0f72ba"
         offset="0"
         id="stop450" /><stop
         style="stop-opacity:1;stop-color:#262261"
         offset="1"
         id="stop452" /></linearGradient><linearGradient
       x1="0"
       y1="0"
       x2="1"
       y2="0"
       gradientUnits="userSpaceOnUse"
       gradientTransform="matrix(0,-202.39803,-202.39803,0,698.94647,660.05017)"
       spreadMethod="pad"
       id="linearGradient474"><stop
         style="stop-opacity:1;stop-color:#0f72ba"
         offset="0"
         id="stop470" /><stop
         style="stop-opacity:1;stop-color:#262261"
         offset="1"
         id="stop472" /></linearGradient><linearGradient
       x1="0"
       y1="0"
       x2="1"
       y2="0"
       gradientUnits="userSpaceOnUse"
       gradientTransform="matrix(0,-202.39803,-202.39803,0,801.30994,660.05017)"
       spreadMethod="pad"
       id="linearGradient494"><stop
         style="stop-opacity:1;stop-color:#0f72ba"
         offset="0"
         id="stop490" /><stop
         style="stop-opacity:1;stop-color:#262261"
         offset="1"
         id="stop492" /></linearGradient><linearGradient
       x1="0"
       y1="0"
       x2="1"
       y2="0"
       gradientUnits="userSpaceOnUse"
       gradientTransform="matrix(0,-202.39803,-202.39803,0,901.97229,660.05017)"
       spreadMethod="pad"
       id="linearGradient514"><stop
         style="stop-opacity:1;stop-color:#0f72ba"
         offset="0"
         id="stop510" /><stop
         style="stop-opacity:1;stop-color:#262261"
         offset="1"
         id="stop512" /></linearGradient><linearGradient
       x1="0"
       y1="0"
       x2="1"
       y2="0"
       gradientUnits="userSpaceOnUse"
       gradientTransform="matrix(0,-202.39803,-202.39803,0,977.29156,660.05017)"
       spreadMethod="pad"
       id="linearGradient534"><stop
         style="stop-opacity:1;stop-color:#0f72ba"
         offset="0"
         id="stop530" /><stop
         style="stop-opacity:1;stop-color:#262261"
         offset="1"
         id="stop532" /></linearGradient><linearGradient
       x1="0"
       y1="0"
       x2="1"
       y2="0"
       gradientUnits="userSpaceOnUse"
       gradientTransform="matrix(0,-202.39803,-202.39803,0,1049.0227,660.05017)"
       spreadMethod="pad"
       id="linearGradient554"><stop
         style="stop-opacity:1;stop-color:#0f72ba"
         offset="0"
         id="stop550" /><stop
         style="stop-opacity:1;stop-color:#262261"
         offset="1"
         id="stop552" /></linearGradient><linearGradient
       x1="0"
       y1="0"
       x2="1"
       y2="0"
       gradientUnits="userSpaceOnUse"
       gradientTransform="matrix(0,-202.39803,-202.39803,0,1154.657,660.05017)"
       spreadMethod="pad"
       id="linearGradient574"><stop
         style="stop-opacity:1;stop-color:#0f72ba"
         offset="0"
         id="stop570" /><stop
         style="stop-opacity:1;stop-color:#262261"
         offset="1"
         id="stop572" /></linearGradient><linearGradient
       x1="0"
       y1="0"
       x2="1"
       y2="0"
       gradientUnits="userSpaceOnUse"
       gradientTransform="matrix(0,-202.39803,-202.39803,0,1260.2578,660.05017)"
       spreadMethod="pad"
       id="linearGradient594"><stop
         style="stop-opacity:1;stop-color:#0f72ba"
         offset="0"
         id="stop590" /><stop
         style="stop-opacity:1;stop-color:#262261"
         offset="1"
         id="stop592" /></linearGradient><linearGradient
       x1="0"
       y1="0"
       x2="1"
       y2="0"
       gradientUnits="userSpaceOnUse"
       gradientTransform="matrix(0,-202.39803,-202.39803,0,1362.7001,660.05017)"
       spreadMethod="pad"
       id="linearGradient614"><stop
         style="stop-opacity:1;stop-color:#0f72ba"
         offset="0"
         id="stop610" /><stop
         style="stop-opacity:1;stop-color:#262261"
         offset="1"
         id="stop612" /></linearGradient></defs><sodipodi:namedview
     pagecolor="#ffffff"
     bordercolor="#666666"
     borderopacity="1"
     objecttolerance="10"
     gridtolerance="10"
     guidetolerance="10"
     inkscape:pageopacity="0"
     inkscape:pageshadow="2"
     inkscape:window-width="640"
     inkscape:window-height="480"
     id="namedview4" /><g
     id="g10"
     inkscape:groupmode="layer"
     inkscape:label="decalogue final files"
     transform="matrix(1.3333333,0,0,-1.3333333,0,1440)"><path
       d="m 812.201,460.95 h 11.915 v -38.427 h -11.915 z"
       style="fill:#989898;fill-opacity:1;fill-rule:nonzero;stroke:none"
       id="path12" /><g
       id="g14"><g
         id="g16"
         clip-path="url(#clipPath20)"><g
           id="g22"
           transform="translate(827.9824,450.3779)"><path
             d="m 0,0 h 9.947 v -4.535 c 1.485,1.86 2.978,3.184 4.499,3.98 1.52,0.796 3.363,1.199 5.546,1.199 2.951,0 5.25,-0.876 6.923,-2.639 1.664,-1.753 2.496,-4.472 2.496,-8.149 v -17.71 H 18.677 v 15.322 c 0,1.754 -0.323,2.988 -0.966,3.713 -0.644,0.723 -1.548,1.09 -2.711,1.09 -1.279,0 -2.325,-0.492 -3.122,-1.466 -0.795,-0.985 -1.198,-2.738 -1.198,-5.278 V -27.854 H 0 Z"
             style="fill:#989898;fill-opacity:1;fill-rule:nonzero;stroke:none"
             id="path24" /></g><g
           id="g26"
           transform="translate(859.8555,450.3779)"><path
             d="m 0,0 h 9.947 v -4.535 c 1.485,1.86 2.978,3.184 4.499,3.98 1.521,0.796 3.364,1.199 5.546,1.199 2.951,0 5.25,-0.876 6.923,-2.639 1.664,-1.753 2.496,-4.472 2.496,-8.149 v -17.71 H 18.677 v 15.322 c 0,1.754 -0.322,2.988 -0.966,3.713 -0.644,0.723 -1.547,1.09 -2.711,1.09 -1.278,0 -2.325,-0.492 -3.121,-1.466 -0.796,-0.985 -1.199,-2.738 -1.199,-5.278 V -27.854 H 0 Z"
             style="fill:#989898;fill-opacity:1;fill-rule:nonzero;stroke:none"
             id="path28" /></g><g
           id="g30"
           transform="translate(890.4409,436.3701)"><path
             d="m 0,0 c 0,4.258 1.431,7.764 4.293,10.52 2.863,2.754 6.727,4.131 11.593,4.131 5.572,0 9.777,-1.619 12.621,-4.856 2.281,-2.612 3.426,-5.823 3.426,-9.634 0,-4.294 -1.413,-7.8 -4.249,-10.546 -2.835,-2.737 -6.762,-4.105 -11.771,-4.105 -4.464,0 -8.078,1.136 -10.832,3.417 C 1.69,-8.256 0,-4.562 0,0 m 10.68,0.018 c 0,-2.496 0.501,-4.338 1.503,-5.528 1.002,-1.189 2.254,-1.789 3.775,-1.789 1.529,0 2.781,0.59 3.765,1.762 0.984,1.172 1.476,3.059 1.476,5.653 0,2.424 -0.492,4.222 -1.485,5.412 C 18.722,6.709 17.496,7.299 16.029,7.299 14.481,7.299 13.203,6.7 12.192,5.501 11.181,4.293 10.68,2.469 10.68,0.018"
             style="fill:#989898;fill-opacity:1;fill-rule:nonzero;stroke:none"
             id="path32" /></g><g
           id="g34"
           transform="translate(918.6016,450.3779)"><path
             d="M 0,0 H 11.101 L 16.503,-17.648 22.085,0 H 32.846 L 21.039,-27.854 h -9.464 z"
             style="fill:#989898;fill-opacity:1;fill-rule:nonzero;stroke:none"
             id="path36" /></g><g
           id="g38"
           transform="translate(960.395,441.3613)"><path
             d="m 0,0 -10.197,1.073 c 0.384,1.789 0.939,3.194 1.663,4.213 0.725,1.029 1.763,1.914 3.131,2.666 0.975,0.546 2.317,0.966 4.026,1.261 1.708,0.296 3.559,0.447 5.554,0.447 3.194,0 5.752,-0.179 7.693,-0.536 1.932,-0.358 3.551,-1.109 4.838,-2.245 0.914,-0.787 1.628,-1.905 2.148,-3.346 0.527,-1.44 0.787,-2.817 0.787,-4.133 v -12.307 c 0,-1.316 0.08,-2.344 0.25,-3.086 0.161,-0.742 0.528,-1.691 1.082,-2.845 h -9.991 c -0.402,0.716 -0.661,1.252 -0.787,1.628 -0.116,0.376 -0.241,0.957 -0.366,1.753 -1.396,-1.341 -2.783,-2.299 -4.169,-2.871 -1.887,-0.77 -4.079,-1.153 -6.575,-1.153 -3.318,0 -5.84,0.768 -7.558,2.316 -1.726,1.538 -2.585,3.443 -2.585,5.698 0,2.119 0.617,3.863 1.861,5.233 1.243,1.368 3.533,2.388 6.869,3.049 3.998,0.806 6.592,1.37 7.783,1.701 1.189,0.321 2.451,0.742 3.774,1.269 0,1.316 -0.269,2.228 -0.814,2.755 C 7.88,3.068 6.932,3.327 5.573,3.327 3.829,3.327 2.522,3.05 1.646,2.486 0.966,2.039 0.42,1.217 0,0 M 9.231,-5.582 C 7.764,-6.109 6.235,-6.574 4.633,-6.985 2.468,-7.567 1.091,-8.14 0.519,-8.703 c -0.6,-0.581 -0.895,-1.244 -0.895,-1.986 0,-0.85 0.295,-1.547 0.877,-2.084 0.59,-0.537 1.449,-0.805 2.584,-0.805 1.191,0 2.299,0.295 3.329,0.877 1.019,0.581 1.744,1.288 2.172,2.129 0.43,0.84 0.645,1.931 0.645,3.273 z"
             style="fill:#989898;fill-opacity:1;fill-rule:nonzero;stroke:none"
             id="path40" /></g><g
           id="g42"
           transform="translate(994.46,460.9502)"><path
             d="m 0,0 v -10.572 h 5.85 v -7.836 H 0 v -9.858 c 0,-1.18 0.116,-1.967 0.34,-2.352 0.348,-0.59 0.966,-0.885 1.843,-0.885 0.787,0 1.886,0.224 3.309,0.68 l 0.787,-7.38 c -2.638,-0.581 -5.098,-0.867 -7.388,-0.867 -2.658,0 -4.617,0.34 -5.877,1.019 -1.252,0.68 -2.183,1.717 -2.791,3.104 -0.6,1.386 -0.904,3.64 -0.904,6.744 v 9.795 h -3.918 v 7.836 h 3.918 v 5.107 z"
             style="fill:#989898;fill-opacity:1;fill-rule:nonzero;stroke:none"
             id="path44" /></g><path
           d="m 1001.851,460.95 h 10.681 v -7.245 h -10.681 z m 0,-10.572 h 10.681 v -27.854 h -10.681 z"
           style="fill:#989898;fill-opacity:1;fill-rule:nonzero;stroke:none"
           id="path46" /><g
           id="g48"
           transform="translate(1012.2559,450.3779)"><path
             d="M 0,0 H 11.101 L 16.504,-17.648 22.085,0 H 32.846 L 21.039,-27.854 h -9.464 z"
             style="fill:#989898;fill-opacity:1;fill-rule:nonzero;stroke:none"
             id="path50" /></g><g
           id="g52"
           transform="translate(1073.8086,433.7939)"><path
             d="m 0,0 h -21.414 c 0.196,-1.708 0.653,-2.987 1.395,-3.828 1.029,-1.208 2.379,-1.807 4.043,-1.807 1.056,0 2.058,0.259 2.997,0.778 0.582,0.331 1.208,0.913 1.87,1.745 L -0.59,-4.079 c -1.61,-2.79 -3.552,-4.803 -5.824,-6.011 -2.272,-1.217 -5.536,-1.824 -9.785,-1.824 -3.695,0 -6.592,0.518 -8.712,1.565 -2.111,1.037 -3.864,2.693 -5.26,4.955 -1.387,2.272 -2.084,4.938 -2.084,7.998 0,4.355 1.395,7.888 4.186,10.581 2.782,2.692 6.637,4.043 11.548,4.043 3.99,0 7.129,-0.609 9.436,-1.816 2.309,-1.208 4.07,-2.952 5.278,-5.251 C -0.6,7.872 0,4.884 0,1.208 Z m -10.841,5.099 c -0.206,2.075 -0.769,3.559 -1.673,4.455 -0.903,0.893 -2.084,1.341 -3.56,1.341 -1.699,0 -3.059,-0.68 -4.078,-2.031 -0.645,-0.841 -1.056,-2.093 -1.236,-3.765 z"
             style="fill:#989898;fill-opacity:1;fill-rule:nonzero;stroke:none"
             id="path54" /></g><path
           d="m 1093.848,460.95 h 11.914 v -38.427 h -11.914 z"
           style="fill:#989898;fill-opacity:1;fill-rule:nonzero;stroke:none"
           id="path56" /><g
           id="g58"
           transform="translate(1107.6436,460.9502)"><path
             d="M 0,0 H 36.119 V -9.499 H 23.99 V -38.427 H 12.129 V -9.499 L 0,-9.499 Z"
             style="fill:#989898;fill-opacity:1;fill-rule:nonzero;stroke:none"
             id="path60" /></g><g
           id="g62"
           transform="translate(1161.0195,435.2344)"><path
             d="m 0,0 11.271,0.706 c 0.242,-1.824 0.743,-3.22 1.494,-4.168 1.225,-1.548 2.969,-2.325 5.242,-2.325 1.69,0 2.996,0.393 3.908,1.189 0.922,0.796 1.378,1.717 1.378,2.764 0,0.993 -0.43,1.888 -1.297,2.675 -0.868,0.787 -2.89,1.52 -6.064,2.226 -5.206,1.163 -8.91,2.72 -11.128,4.662 -2.237,1.931 -3.355,4.4 -3.355,7.406 0,1.968 0.572,3.828 1.718,5.581 1.145,1.763 2.862,3.139 5.161,4.141 2.299,1.002 5.447,1.503 9.445,1.503 4.912,0 8.651,-0.912 11.227,-2.746 2.575,-1.825 4.105,-4.732 4.598,-8.721 L 22.434,14.231 c -0.295,1.745 -0.921,3.014 -1.87,3.802 -0.957,0.796 -2.271,1.19 -3.944,1.19 -1.378,0 -2.425,-0.296 -3.122,-0.877 -0.697,-0.581 -1.047,-1.297 -1.047,-2.138 0,-0.608 0.287,-1.154 0.851,-1.645 0.545,-0.51 1.869,-0.976 3.962,-1.415 5.188,-1.117 8.9,-2.253 11.136,-3.398 2.246,-1.146 3.882,-2.559 4.902,-4.258 1.02,-1.69 1.53,-3.587 1.53,-5.689 0,-2.46 -0.68,-4.732 -2.04,-6.816 -1.368,-2.075 -3.265,-3.658 -5.716,-4.732 -2.441,-1.073 -5.518,-1.609 -9.239,-1.609 -6.53,0 -11.057,1.26 -13.569,3.774 C 1.754,-7.066 0.332,-3.873 0,0"
             style="fill:#989898;fill-opacity:1;fill-rule:nonzero;stroke:none"
             id="path64" /></g><g
           id="g66"
           transform="translate(1195.9072,436.3701)"><path
             d="m 0,0 c 0,4.258 1.432,7.764 4.294,10.52 2.862,2.754 6.727,4.131 11.593,4.131 5.572,0 9.776,-1.619 12.621,-4.856 2.281,-2.612 3.426,-5.823 3.426,-9.634 0,-4.294 -1.413,-7.8 -4.249,-10.546 -2.835,-2.737 -6.763,-4.105 -11.772,-4.105 -4.464,0 -8.077,1.136 -10.832,3.417 C 1.691,-8.256 0,-4.562 0,0 m 10.681,0.018 c 0,-2.496 0.501,-4.338 1.503,-5.528 1.002,-1.189 2.254,-1.789 3.774,-1.789 1.529,0 2.782,0.59 3.766,1.762 0.984,1.172 1.475,3.059 1.475,5.653 0,2.424 -0.491,4.222 -1.484,5.412 -0.993,1.181 -2.219,1.771 -3.686,1.771 -1.547,0 -2.826,-0.599 -3.837,-1.798 -1.01,-1.208 -1.511,-3.032 -1.511,-5.483"
             style="fill:#989898;fill-opacity:1;fill-rule:nonzero;stroke:none"
             id="path68" /></g><path
           d="m 1229.444,460.95 h 10.681 v -38.427 h -10.681 z"
           style="fill:#989898;fill-opacity:1;fill-rule:nonzero;stroke:none"
           id="path70" /><g
           id="g72"
           transform="translate(1272.3203,422.5234)"><path
             d="m 0,0 h -9.974 v 4.49 c -1.485,-1.851 -2.978,-3.166 -4.481,-3.953 -1.512,-0.788 -3.363,-1.181 -5.564,-1.181 -2.934,0 -5.224,0.876 -6.896,2.639 -1.664,1.753 -2.496,4.463 -2.496,8.121 v 17.738 h 10.734 V 12.505 c 0,-1.744 0.322,-2.987 0.966,-3.73 0.644,-0.733 1.547,-1.1 2.71,-1.1 1.262,0 2.299,0.492 3.113,1.467 0.805,0.984 1.207,2.746 1.207,5.286 V 27.854 H 0 Z"
             style="fill:#989898;fill-opacity:1;fill-rule:nonzero;stroke:none"
             id="path74" /></g><g
           id="g76"
           transform="translate(1287.7705,460.9502)"><path
             d="m 0,0 v -10.572 h 5.85 v -7.836 H 0 v -9.858 c 0,-1.18 0.116,-1.967 0.34,-2.352 0.348,-0.59 0.966,-0.885 1.843,-0.885 0.787,0 1.887,0.224 3.309,0.68 l 0.787,-7.38 c -2.638,-0.581 -5.098,-0.867 -7.388,-0.867 -2.657,0 -4.616,0.34 -5.876,1.019 -1.253,0.68 -2.184,1.717 -2.791,3.104 -0.6,1.386 -0.905,3.64 -0.905,6.744 v 9.795 h -3.917 v 7.836 h 3.917 v 5.107 z"
             style="fill:#989898;fill-opacity:1;fill-rule:nonzero;stroke:none"
             id="path78" /></g><path
           d="m 1295.162,460.95 h 10.68 v -7.245 h -10.68 z m 0,-10.572 h 10.68 v -27.854 h -10.68 z"
           style="fill:#989898;fill-opacity:1;fill-rule:nonzero;stroke:none"
           id="path80" /><g
           id="g82"
           transform="translate(1307.4453,436.3701)"><path
             d="m 0,0 c 0,4.258 1.432,7.764 4.294,10.52 2.862,2.754 6.727,4.131 11.593,4.131 5.572,0 9.776,-1.619 12.621,-4.856 2.281,-2.612 3.426,-5.823 3.426,-9.634 0,-4.294 -1.413,-7.8 -4.249,-10.546 -2.835,-2.737 -6.763,-4.105 -11.772,-4.105 -4.463,0 -8.077,1.136 -10.832,3.417 C 1.691,-8.256 0,-4.562 0,0 m 10.681,0.018 c 0,-2.496 0.501,-4.338 1.503,-5.528 1.002,-1.189 2.254,-1.789 3.774,-1.789 1.529,0 2.782,0.59 3.766,1.762 0.984,1.172 1.475,3.059 1.475,5.653 0,2.424 -0.491,4.222 -1.484,5.412 -0.993,1.181 -2.219,1.771 -3.686,1.771 -1.547,0 -2.826,-0.599 -3.837,-1.798 -1.01,-1.208 -1.511,-3.032 -1.511,-5.483"
             style="fill:#989898;fill-opacity:1;fill-rule:nonzero;stroke:none"
             id="path84" /></g><g
           id="g86"
           transform="translate(1340.6074,450.3779)"><path
             d="m 0,0 h 9.946 v -4.535 c 1.486,1.86 2.979,3.184 4.499,3.98 1.521,0.796 3.364,1.199 5.546,1.199 2.952,0 5.251,-0.876 6.924,-2.639 1.663,-1.753 2.495,-4.472 2.495,-8.149 v -17.71 H 18.677 v 15.322 c 0,1.754 -0.323,2.988 -0.966,3.713 -0.645,0.723 -1.548,1.09 -2.711,1.09 -1.279,0 -2.325,-0.492 -3.122,-1.466 -0.796,-0.985 -1.198,-2.738 -1.198,-5.278 V -27.854 H 0 Z"
             style="fill:#989898;fill-opacity:1;fill-rule:nonzero;stroke:none"
             id="path88" /></g><g
           id="g90"
           transform="translate(1370.6016,430.252)"><path
             d="m 0,0 10.573,0.966 c 0.439,-1.252 1.047,-2.147 1.833,-2.684 0.788,-0.536 1.834,-0.804 3.15,-0.804 1.43,0 2.54,0.303 3.327,0.92 0.617,0.448 0.922,1.021 0.922,1.701 0,0.768 -0.404,1.368 -1.208,1.789 C 18.024,2.183 16.495,2.549 14.018,2.987 10.313,3.632 7.747,4.23 6.298,4.785 4.857,5.331 3.649,6.271 2.657,7.576 c -0.984,1.315 -1.476,2.809 -1.476,4.49 0,1.834 0.528,3.417 1.592,4.742 1.065,1.332 2.532,2.325 4.401,2.978 1.87,0.652 4.374,0.984 7.514,0.984 3.309,0 5.76,-0.25 7.334,-0.76 1.583,-0.51 2.899,-1.297 3.955,-2.362 1.055,-1.073 1.931,-2.513 2.628,-4.338 L 18.517,12.344 c -0.26,0.885 -0.699,1.538 -1.307,1.959 -0.831,0.554 -1.842,0.832 -3.032,0.832 -1.199,0 -2.075,-0.215 -2.62,-0.645 -0.546,-0.428 -0.824,-0.948 -0.824,-1.556 0,-0.689 0.349,-1.199 1.037,-1.547 0.69,-0.358 2.21,-0.671 4.544,-0.949 3.552,-0.402 6.182,-0.965 7.917,-1.681 1.727,-0.716 3.05,-1.736 3.962,-3.069 0.922,-1.332 1.378,-2.79 1.378,-4.382 0,-1.61 -0.483,-3.176 -1.458,-4.697 -0.967,-1.52 -2.496,-2.727 -4.58,-3.63 C 21.45,-7.925 18.605,-8.372 15.01,-8.372 9.929,-8.372 6.307,-7.647 4.15,-6.19 1.995,-4.741 0.608,-2.675 0,0"
             style="fill:#989898;fill-opacity:1;fill-rule:nonzero;stroke:none"
             id="path92" /></g><path
           d="M 794.493,440.152 H 511 v 3.17 h 283.493 z"
           style="fill:#989898;fill-opacity:1;fill-rule:nonzero;stroke:none"
           id="path94" /></g></g><g
       id="g96"><g
         id="g98"><g
           id="g104"><g
             id="g106"><path
               d="m 511.016,629.546 v -129.2 h 35.036 c 14.488,0 26.04,0.644 34.673,1.941 v 0 c 8.631,1.289 15.754,3.353 21.367,6.175 v 0 c 11.53,5.947 20.344,13.736 26.436,23.392 v 0 c 6.098,9.649 9.147,20.648 9.147,33.005 v 0 c 0,12.409 -3.064,23.476 -9.185,33.186 v 0 c -6.13,9.701 -14.929,17.499 -26.398,23.385 v 0 c -5.431,2.761 -12.478,4.809 -21.14,6.129 v 0 c -8.663,1.328 -19.115,1.987 -31.373,1.987 v 0 z m 38.275,-34.399 c 0,0 31.099,2.276 39.444,-6.068 v 0 c 0,0 11.378,-8.344 10.619,-25.032 v 0 c 0,0 -1.517,-20.48 -15.929,-25.79 v 0 c 0,0 -5.31,-3.793 -18.964,-3.793 v 0 h -15.17 z"
               style="fill:url(#linearGradient112);stroke:none"
               id="path114" /></g></g></g></g><g
       id="g116"><g
         id="g118"><g
           id="g124"><g
             id="g126"><path
               d="m 511,500.346 h 38.291 C 552.689,602.747 511,629.296 511,629.296 v 0 z"
               style="fill:url(#linearGradient132);stroke:none"
               id="path134" /></g></g></g></g><g
       id="g136"><g
         id="g138"><g
           id="g144"><g
             id="g146"><path
               d="m 511,500.346 c 38.685,56.889 0,128.95 0,128.95 v 0 z"
               style="fill:url(#linearGradient152);stroke:none"
               id="path154" /></g></g></g></g><g
       id="g156"><g
         id="g158"><g
           id="g164"><g
             id="g166"><path
               d="m 549.291,534.464 -0.364,-34.118 c 105.436,-2.277 86.828,80.655 86.828,80.655 v 0 c -11.782,-54.363 -86.464,-46.537 -86.464,-46.537"
               style="fill:url(#linearGradient172);stroke:none"
               id="path174" /></g></g></g></g><g
       id="g176"><g
         id="g178"
         clip-path="url(#clipPath182)"><path
           d="m 559.546,606.54 h -10.62 v 19.722 h 10.62 z"
           style="fill:#ffffff;fill-opacity:1;fill-rule:nonzero;stroke:none"
           id="path184" /><path
           d="m 569.407,592.887 h -9.861 v 12.895 h 9.861 z"
           style="fill:#ffffff;fill-opacity:1;fill-rule:nonzero;stroke:none"
           id="path186" /><path
           d="m 590.646,595.162 h -10.619 v 10.62 h 10.619 z"
           style="fill:#ffffff;fill-opacity:1;fill-rule:nonzero;stroke:none"
           id="path188" /><path
           d="m 600.507,605.023 h -9.861 v 11.378 h 9.861 z"
           style="fill:#ffffff;fill-opacity:1;fill-rule:nonzero;stroke:none"
           id="path190" /><path
           d="m 590.646,615.643 h -10.619 v 11.378 h 10.619 z"
           style="fill:#ffffff;fill-opacity:1;fill-rule:nonzero;stroke:none"
           id="path192" /><path
           d="m 611.126,614.884 h -9.861 v 11.378 h 9.861 z"
           style="fill:#ffffff;fill-opacity:1;fill-rule:nonzero;stroke:none"
           id="path194" /><path
           d="m 621.746,595.162 h -10.62 v 10.62 h 10.62 z"
           style="fill:#ffffff;fill-opacity:1;fill-rule:nonzero;stroke:none"
           id="path196" /><path
           d="m 620.988,595.162 h 11.378 v -10.62 h -11.378 z"
           style="fill:#ffffff;fill-opacity:1;fill-rule:nonzero;stroke:none"
           id="path198" /><path
           d="m 611.126,584.542 h 10.62 v -10.619 h -10.62 z"
           style="fill:#ffffff;fill-opacity:1;fill-rule:nonzero;stroke:none"
           id="path200" /><path
           d="m 645.261,573.923 h -13.654 v 11.378 h 13.654 z"
           style="fill:#ffffff;fill-opacity:1;fill-rule:nonzero;stroke:none"
           id="path202" /><path
           d="m 611.126,584.542 h -21.239 v 11.378 h 21.239 z"
           style="fill:#ffffff;fill-opacity:1;fill-rule:nonzero;stroke:none"
           id="path204" /></g></g><g
       id="g206"><g
         id="g208"><g
           id="g214"><g
             id="g216"><path
               d="m 621.746,605.782 h 9.86 v 9.86 h -9.86 z"
               style="fill:url(#linearGradient222);stroke:none"
               id="path224" /></g></g></g></g><g
       id="g226"><g
         id="g228"><g
           id="g234"><g
             id="g236"><path
               d="m 631.607,615.642 h 10.62 v 9.861 h -10.62 z"
               style="fill:url(#linearGradient242);stroke:none"
               id="path244" /></g></g></g></g><g
       id="g246"><g
         id="g248"><g
           id="g254"><g
             id="g256"><path
               d="m 611.126,626.262 h 21.24 v 10.619 h -21.24 z"
               style="fill:url(#linearGradient262);stroke:none"
               id="path264" /></g></g></g></g><g
       id="g266"><g
         id="g268"><g
           id="g274"><g
             id="g276"><path
               d="m 631.607,636.881 h 10.62 v 9.861 h -10.62 z"
               style="fill:url(#linearGradient282);stroke:none"
               id="path284" /></g></g></g></g><g
       id="g286"><g
         id="g288"><g
           id="g294"><g
             id="g296"><path
               d="m 642.227,647.501 h 9.861 v 9.86 h -9.861 z"
               style="fill:url(#linearGradient302);stroke:none"
               id="path304" /></g></g></g></g><g
       id="g306"><g
         id="g308"><g
           id="g314"><g
             id="g316"><path
               d="m 621.746,646.743 h 10.62 v 9.86 h -10.62 z"
               style="fill:url(#linearGradient322);stroke:none"
               id="path324" /></g></g></g></g><g
       id="g326"><g
         id="g328"><g
           id="g334"><g
             id="g336"><path
               d="m 548.927,646.743 h 9.86 v 11.378 h -9.86 z"
               style="fill:url(#linearGradient342);stroke:none"
               id="path344" /></g></g></g></g><g
       id="g346"><g
         id="g348"><g
           id="g354"><g
             id="g356"><path
               d="m 570.165,636.881 h 9.861 v 19.722 h -9.861 z"
               style="fill:url(#linearGradient362);stroke:none"
               id="path364" /></g></g></g></g><g
       id="g366"><g
         id="g368"><g
           id="g374"><g
             id="g376"><path
               d="m 590.646,646.743 h 9.861 v 10.619 h -9.861 z"
               style="fill:url(#linearGradient382);stroke:none"
               id="path384" /></g></g></g></g><g
       id="g386"><g
         id="g388"><g
           id="g394"><g
             id="g396"><path
               d="m 600.507,636.123 h 11.378 v 10.62 h -11.378 z"
               style="fill:url(#linearGradient402);stroke:none"
               id="path404" /></g></g></g></g><g
       id="g406"><g
         id="g408"><g
           id="g414"><g
             id="g416"><path
               d="m 559.546,605.782 h 19.722 v 20.48 h -19.722 z"
               style="fill:url(#linearGradient422);stroke:none"
               id="path424" /></g></g></g></g><g
       id="g426"><g
         id="g428"
         clip-path="url(#clipPath432)"><path
           d="m 578.51,595.162 h -8.344 v 34.134 h 8.344 z"
           style="fill:#ffffff;fill-opacity:1;fill-rule:nonzero;stroke:none"
           id="path434" /><path
           d="m 569.407,632.331 h -9.861 v -6.068 h 9.861 z"
           style="fill:#ffffff;fill-opacity:1;fill-rule:nonzero;stroke:none"
           id="path436" /></g></g><g
       id="g438"><g
         id="g440"><g
           id="g446"><g
             id="g448"><path
               d="m 642.227,595.162 h 9.861 v 20.48 h -9.861 z"
               style="fill:url(#linearGradient454);stroke:none"
               id="path456" /></g></g></g></g><g
       id="g458"><g
         id="g460"><g
           id="g466"><g
             id="g468"><path
               d="m 676.074,584.673 c -7.045,-3.521 -12.709,-8.727 -16.996,-15.54 v 0 c -4.288,-6.814 -6.431,-14.7 -6.431,-23.581 v 0 c 0,-8.881 2.143,-16.69 6.431,-23.504 v 0 c 8.574,-13.627 23.274,-20.824 40.193,-20.824 v 0 c 8.805,0 16.997,2.068 24.423,6.201 v 0 c 7.426,4.058 13.091,9.723 16.995,16.92 v 0 l -18.909,9.035 c -4.287,-9.264 -12.403,-14.7 -22.509,-14.7 v 0 c -5.818,0 -10.947,1.837 -15.312,5.436 v 0 c -4.364,3.598 -7.272,8.498 -8.575,14.545 v 0 h 69.747 c 0.919,15.543 -3.676,28.863 -11.868,37.592 v 0 c -8.267,8.727 -20.288,13.704 -33.992,13.704 v 0 c -8.498,0 -16.23,-1.761 -23.197,-5.284 m 7.58,-17.608 c 4.286,3.599 9.493,5.358 15.617,5.358 v 0 c 6.201,0 11.407,-1.759 15.694,-5.358 v 0 c 4.288,-3.598 7.045,-8.498 8.27,-14.622 v 0 h -47.851 c 1.15,6.124 3.905,11.024 8.27,14.622"
               style="fill:url(#linearGradient474);stroke:none"
               id="path476" /></g></g></g></g><g
       id="g478"><g
         id="g480"><g
           id="g486"><g
             id="g488"><path
               d="m 780.945,584.673 c -7.044,-3.521 -12.709,-8.727 -16.996,-15.54 v 0 c -4.287,-6.814 -6.431,-14.7 -6.431,-23.581 v 0 c 0,-8.881 2.144,-16.69 6.431,-23.504 v 0 c 8.575,-13.627 23.351,-20.824 40.27,-20.824 v 0 c 8.881,0 16.996,2.068 24.423,6.201 v 0 c 7.349,4.135 12.863,9.723 16.46,16.844 v 0 l -20.211,8.192 c -4.059,-8.499 -11.714,-13.014 -20.672,-13.014 v 0 c -6.967,0 -12.785,2.449 -17.532,7.349 v 0 c -4.823,4.822 -7.196,11.1 -7.196,18.833 v 0 c 0,7.655 2.373,13.933 7.196,18.756 v 0 c 4.747,4.824 10.565,7.274 17.532,7.274 v 0 c 8.958,0 16.613,-4.517 20.672,-13.015 v 0 l 20.211,8.269 c -3.597,7.12 -9.111,12.708 -16.46,16.842 v 0 c -7.427,4.134 -15.542,6.202 -24.423,6.202 v 0 c -8.498,0 -16.23,-1.761 -23.274,-5.284"
               style="fill:url(#linearGradient494);stroke:none"
               id="path496" /></g></g></g></g><g
       id="g498"><g
         id="g500"><g
           id="g506"><g
             id="g508"><path
               d="m 867.061,577.553 c -7.273,-7.732 -11.79,-19.216 -11.79,-32.001 v 0 c 0,-12.785 4.517,-24.27 11.79,-31.926 v 0 c 7.273,-7.654 17.532,-12.402 28.863,-12.402 v 0 c 15.771,0 26.031,4.671 30.701,13.934 v 0 l 0.995,-12.709 h 21.054 v 86.206 H 927.62 l -0.995,-12.632 c -4.977,8.804 -16.307,13.934 -30.701,13.934 v 0 c -11.331,0 -21.59,-4.747 -28.863,-12.404 m 17.455,-50.375 c -4.746,4.822 -7.119,10.947 -7.119,18.374 v 0 c 0,7.503 2.373,13.627 7.119,18.451 v 0 c 4.67,4.823 10.489,7.195 17.38,7.195 v 0 c 6.967,0 12.785,-2.372 17.609,-7.195 v 0 c 4.746,-4.824 7.12,-10.948 7.12,-18.374 v 0 c 0,-7.504 -2.374,-13.629 -7.12,-18.451 v 0 c -4.824,-4.823 -10.642,-7.272 -17.609,-7.272 v 0 c -6.815,0 -12.632,2.449 -17.38,7.272"
               style="fill:url(#linearGradient514);stroke:none"
               id="path516" /></g></g></g></g><g
       id="g518"><g
         id="g520"><g
           id="g526"><g
             id="g528"><path
               d="m 966.267,502.449 h 22.049 v 117.595 h -22.049 z"
               style="fill:url(#linearGradient534);stroke:none"
               id="path536" /></g></g></g></g><g
       id="g538"><g
         id="g540"><g
           id="g546"><g
             id="g548"><path
               d="m 1025.749,584.673 c -7.043,-3.521 -12.709,-8.727 -16.996,-15.54 v 0 c -4.288,-6.814 -6.432,-14.7 -6.432,-23.581 v 0 c 0,-8.881 2.144,-16.69 6.432,-23.504 v 0 c 8.574,-13.627 23.35,-20.824 40.269,-20.824 v 0 c 8.422,0 16.155,1.762 23.198,5.282 v 0 c 7.044,3.522 12.708,8.729 17.072,15.542 v 0 c 4.288,6.814 6.433,14.623 6.433,23.504 v 0 c 0,8.881 -2.145,16.767 -6.433,23.581 v 0 c -8.65,13.704 -23.427,20.824 -40.27,20.824 v 0 c -8.498,0 -16.23,-1.761 -23.273,-5.284 m 5.741,-57.495 c -4.823,4.822 -7.196,10.947 -7.196,18.451 v 0 c 0,7.426 2.373,13.55 7.196,18.374 v 0 c 4.747,4.823 10.566,7.195 17.532,7.195 v 0 c 6.891,0 12.71,-2.372 17.533,-7.195 v 0 c 4.823,-4.824 7.196,-10.948 7.196,-18.374 v 0 c 0,-7.427 -2.373,-13.629 -7.196,-18.451 v 0 c -4.823,-4.823 -10.719,-7.272 -17.533,-7.272 v 0 c -6.966,0 -12.785,2.449 -17.532,7.272"
               style="fill:url(#linearGradient554);stroke:none"
               id="path556" /></g></g></g></g><g
       id="g558"><g
         id="g560"><g
           id="g566"><g
             id="g568"><path
               d="m 1107.958,546.547 c -0.383,-24.575 18.298,-43.409 40.653,-42.95 v 0 c 15.925,0 26.184,4.441 30.701,13.322 v 0 -6.584 c 0,-7.043 -2.45,-12.556 -7.273,-16.613 v 0 c -4.825,-4.059 -10.795,-6.049 -17.915,-6.049 v 0 c -12.02,0 -21.514,4.058 -28.557,12.096 v 0 l -10.872,-12.249 c 10.03,-11.561 24.269,-17.685 41.113,-17.685 v 0 c 25.647,0 45.553,13.628 45.553,39.582 v 0 79.238 h -21.054 l -0.995,-12.632 c -4.977,8.804 -16.307,13.934 -30.701,13.934 v 0 c -0.259,0.006 -0.516,0.008 -0.775,0.008 v 0 c -22.009,-10e-4 -40.257,-19.279 -39.878,-43.418 m 29.246,-17.685 c -4.747,4.671 -7.12,10.566 -7.12,17.608 v 0 c 0,7.045 2.373,12.94 7.197,17.686 v 0 c 4.746,4.67 10.488,7.042 17.302,7.042 v 0 c 6.89,0 12.709,-2.372 17.532,-7.042 v 0 c 4.823,-4.67 7.197,-10.566 7.197,-17.609 v 0 c 0,-7.119 -2.374,-13.014 -7.197,-17.685 v 0 c -4.823,-4.746 -10.642,-7.121 -17.532,-7.121 v 0 c -6.814,0 -12.632,2.375 -17.379,7.121"
               style="fill:url(#linearGradient574);stroke:none"
               id="path576" /></g></g></g></g><g
       id="g578"><g
         id="g580"><g
           id="g586"><g
             id="g588"><path
               d="m 1280.354,588.655 v -43.103 c 0,-7.809 -1.913,-14.011 -5.664,-18.681 v 0 c -3.751,-4.669 -9.111,-6.965 -16.078,-6.965 v 0 c -13.092,0 -18.527,8.803 -18.527,25.646 v 0 43.103 h -21.974 v -43.103 c 0,-14.47 2.604,-25.417 7.734,-32.997 v 0 c 5.128,-7.579 13.628,-11.331 25.34,-11.331 v 0 c 14.241,0 23.965,4.671 29.169,13.934 v 0 l 0.919,-12.709 h 21.131 v 86.206 z"
               style="fill:url(#linearGradient594);stroke:none"
               id="path596" /></g></g></g></g><g
       id="g598"><g
         id="g600"><g
           id="g606"><g
             id="g608"><path
               d="m 1339.827,584.673 c -7.044,-3.521 -12.708,-8.727 -16.996,-15.54 v 0 c -4.287,-6.814 -6.431,-14.7 -6.431,-23.581 v 0 c 0,-8.881 2.144,-16.69 6.431,-23.504 v 0 c 8.575,-13.627 23.275,-20.824 40.195,-20.824 v 0 c 8.803,0 16.995,2.068 24.421,6.201 v 0 c 7.427,4.058 13.092,9.723 16.997,16.92 v 0 l -18.911,9.035 c -4.287,-9.264 -12.402,-14.7 -22.507,-14.7 v 0 c -5.82,0 -10.949,1.837 -15.313,5.436 v 0 c -4.364,3.598 -7.273,8.498 -8.575,14.545 v 0 h 69.745 c 0.919,15.543 -3.674,28.863 -11.865,37.592 v 0 c -8.269,8.727 -20.289,13.704 -33.992,13.704 v 0 c -8.499,0 -16.232,-1.761 -23.199,-5.284 m 7.58,-17.608 c 4.288,3.599 9.493,5.358 15.619,5.358 v 0 c 6.201,0 11.405,-1.759 15.694,-5.358 v 0 c 4.287,-3.598 7.042,-8.498 8.268,-14.622 v 0 h -47.85 c 1.149,6.124 3.905,11.024 8.269,14.622"
               style="fill:url(#linearGradient614);stroke:none"
               id="path616" /></g></g></g></g></g></svg>
