<svg width="70" height="70" viewBox="0 0 70 70" fill="none" xmlns="http://www.w3.org/2000/svg">
<path d="M35 70C54.33 70 70 54.33 70 35C70 15.67 54.33 0 35 0C15.67 0 0 15.67 0 35C0 54.33 15.67 70 35 70Z" fill="url(#paint0_linear)"/>
<mask id="mask0" mask-type="alpha" maskUnits="userSpaceOnUse" x="20" y="14" width="30" height="42">
<path d="M20 14H50V56H20V14Z" fill="white"/>
</mask>
<g mask="url(#mask0)">
<path fill-rule="evenodd" clip-rule="evenodd" d="M45.7388 35.0671L35.1893 52.4059L24.3639 35.2335C23.1445 33.2949 22.4833 31.0584 22.4833 28.7656C22.4833 21.9808 28.1075 16.4445 35 16.4445C41.8925 16.4445 47.5083 21.9808 47.5083 28.7656C47.5083 30.9904 46.8908 33.1697 45.7388 35.0671ZM35 14C26.729 14 20 20.6239 20 28.7656C20 31.5165 20.7741 34.201 22.2391 36.53L34.1462 55.4183C34.3742 55.7802 34.7761 56 35.2082 56H35.2182C35.6541 55.9966 36.0567 55.77 36.2807 55.4018L47.8843 36.3305C49.2684 34.0507 50 31.4348 50 28.7656C50 20.6239 43.271 14 35 14Z" fill="white"/>
</g>
<path fill-rule="evenodd" clip-rule="evenodd" d="M35.5 33.5167C32.7286 33.5167 30.4833 31.2639 30.4833 28.5C30.4833 25.743 32.743 23.4834 35.5 23.4834C38.257 23.4834 40.5083 25.743 40.5083 28.5C40.5083 31.2236 38.3153 33.5167 35.5 33.5167ZM35.5 21C31.3645 21 28 24.3645 28 28.5C28 32.6091 31.3098 36 35.5 36C39.7419 36 43 32.5639 43 28.5C43 24.3645 39.6355 21 35.5 21Z" fill="white"/>
<defs>
<linearGradient id="paint0_linear" x1="15" y1="-1.12184e-06" x2="59" y2="70" gradientUnits="userSpaceOnUse">
<stop stop-color="#2C64A3"/>
<stop offset="1" stop-color="#4867A9"/>
</linearGradient>
</defs>
</svg>
